<svg xmlns="http://www.w3.org/2000/svg" viewBox="0 0 64 64" width="64" height="64">
  <!-- Tee -->
  <g fill="#d62828">
    <path d="M28 38 h8 l-1.5 14 a2.5 2.5 0 0 1 -5 0 Z"/>
    <rect x="22" y="36" width="20" height="4" rx="2"/>
  </g>
  <!-- Ball -->
  <circle cx="32" cy="22" r="16" fill="#ffffff" stroke="#c8c8c8" stroke-width="1.5"/>
  <!-- Dimples -->
  <g fill="#d0d0d0">
    <circle cx="32" cy="13" r="1.7"/>
    <circle cx="26" cy="16" r="1.7"/><circle cx="38" cy="16" r="1.7"/>
    <circle cx="32" cy="19" r="1.7"/>
    <circle cx="22" cy="21" r="1.7"/><circle cx="42" cy="21" r="1.7"/>
    <circle cx="27" cy="23" r="1.7"/><circle cx="37" cy="23" r="1.7"/>
    <circle cx="32" cy="26" r="1.7"/>
    <circle cx="24" cy="28" r="1.7"/><circle cx="40" cy="28" r="1.7"/>
    <circle cx="29" cy="30" r="1.7"/><circle cx="35" cy="30" r="1.7"/>
  </g>
</svg>
